<svg width="113" height="101" viewBox="0 0 113 101" fill="none" xmlns="http://www.w3.org/2000/svg">
<g opacity="0.48" clip-path="url(#clip0_82_67)">
<path d="M26.3522 1.68488L24.4106 9.14156L6.87189 76.4983L92.7163 98.8509" stroke="white" stroke-width="3.18402" stroke-miterlimit="10"/>
<path d="M17.9399 7.4567L24.4106 9.14156" stroke="white" stroke-width="3.18402" stroke-miterlimit="10"/>
<path d="M15.0516 18.5493L21.5222 20.2342" stroke="white" stroke-width="3.18402" stroke-miterlimit="10"/>
<path d="M12.1632 29.6419L18.6339 31.3268" stroke="white" stroke-width="3.18402" stroke-miterlimit="10"/>
<path d="M9.25881 40.7961L15.7295 42.481" stroke="white" stroke-width="3.18402" stroke-miterlimit="10"/>
<path d="M6.22605 52.4433L12.6967 54.1282" stroke="white" stroke-width="3.18402" stroke-miterlimit="10"/>
<path d="M3.65863 62.3034L10.1293 63.9883" stroke="white" stroke-width="3.18402" stroke-miterlimit="10"/>
<path d="M32.0888 56.4797L21.9206 53.832L15.5983 78.1125L25.7665 80.7601L32.0888 56.4797Z" fill="white"/>
<path d="M51.3754 50.644L41.2071 47.9963L32.2533 82.3834L42.4215 85.031L51.3754 50.644Z" fill="white"/>
<path d="M74.5818 34.0501L64.4136 31.4024L49.9398 86.9887L60.108 89.6363L74.5818 34.0501Z" fill="white"/>
<path d="M90.1528 46.5274L79.9846 43.8798L67.5647 91.5779L77.7329 94.2256L90.1528 46.5274Z" fill="white"/>
</g>
<defs>
<clipPath id="clip0_82_67">
<rect width="95.3932" height="78.9" fill="white" transform="translate(19.8815) rotate(14.5949)"/>
</clipPath>
</defs>
</svg>
