<svg width="115" height="85" viewBox="0 0 115 85" fill="none" xmlns="http://www.w3.org/2000/svg">
<g opacity="0.32" clip-path="url(#clip0_82_36)">
<path d="M61.4502 64.1077C75.7661 64.1077 87.3713 52.5025 87.3713 38.1866C87.3713 23.8708 75.7661 12.2655 61.4502 12.2655C47.1344 12.2655 35.5291 23.8708 35.5291 38.1866C35.5291 52.5025 47.1344 64.1077 61.4502 64.1077Z" stroke="white" stroke-width="3.67965" stroke-miterlimit="10"/>
<path d="M4.04762 66.8061L111.412 13.2876" stroke="white" stroke-width="3.67965" stroke-miterlimit="10"/>
<path d="M61.4502 41.7028C63.3921 41.7028 64.9663 40.1285 64.9663 38.1866C64.9663 36.2447 63.3921 34.6705 61.4502 34.6705C59.5083 34.6705 57.9341 36.2447 57.9341 38.1866C57.9341 40.1285 59.5083 41.7028 61.4502 41.7028Z" fill="white"/>
<path d="M4.04762 25.1443C5.83146 25.1443 7.27754 23.6982 7.27754 21.9144C7.27754 20.1306 5.83146 18.6845 4.04762 18.6845C2.26379 18.6845 0.817703 20.1306 0.817703 21.9144C0.817703 23.6982 2.26379 25.1443 4.04762 25.1443Z" stroke="white" stroke-width="1.6354" stroke-miterlimit="10"/>
<path d="M43.1337 7.27752C44.9176 7.27752 46.3636 5.83144 46.3636 4.04761C46.3636 2.26377 44.9176 0.817688 43.1337 0.817688C41.3499 0.817688 39.9038 2.26377 39.9038 4.04761C39.9038 5.83144 41.3499 7.27752 43.1337 7.27752Z" stroke="white" stroke-width="1.6354" stroke-miterlimit="10"/>
<path d="M82.5469 7.6864C84.3307 7.6864 85.7768 6.24032 85.7768 4.45648C85.7768 2.67265 84.3307 1.22656 82.5469 1.22656C80.7631 1.22656 79.317 2.67265 79.317 4.45648C79.317 6.24032 80.7631 7.6864 82.5469 7.6864Z" stroke="white" stroke-width="1.6354" stroke-miterlimit="10"/>
<path d="M110.431 53.355C112.214 53.355 113.66 51.9089 113.66 50.1251C113.66 48.3412 112.214 46.8951 110.431 46.8951C108.647 46.8951 107.201 48.3412 107.201 50.1251C107.201 51.9089 108.647 53.355 110.431 53.355Z" stroke="white" stroke-width="1.6354" stroke-miterlimit="10"/>
<path d="M50.3295 84.2232C49.4709 83.9779 48.6532 83.7326 47.7946 83.4464" stroke="white" stroke-width="1.6354" stroke-miterlimit="10"/>
<path d="M43.7879 81.8519C25.7576 73.7157 9.19914 53.3141 4.78355 29.887" stroke="white" stroke-width="1.6354" stroke-miterlimit="10" stroke-dasharray="5.61 4.32"/>
<path d="M4.41559 27.7609C4.29293 26.9023 4.17028 26.0029 4.04762 25.1443" stroke="white" stroke-width="1.6354" stroke-miterlimit="10"/>
<path d="M18.7253 37.1236L24.4901 43.3382" stroke="white" stroke-width="1.6354" stroke-miterlimit="10"/>
<path d="M18.7253 42.8475L24.1631 37.1236" stroke="white" stroke-width="1.6354" stroke-miterlimit="10"/>
<path d="M96.8976 26.33L102.294 32.6671" stroke="white" stroke-width="1.6354" stroke-miterlimit="10"/>
<path d="M96.8976 32.2992L102.294 26.33" stroke="white" stroke-width="1.6354" stroke-miterlimit="10"/>
</g>
<defs>
<clipPath id="clip0_82_36">
<rect width="114.478" height="85" fill="white"/>
</clipPath>
</defs>
</svg>
