<svg width="194" height="65" viewBox="0 0 194 65" fill="none" xmlns="http://www.w3.org/2000/svg">
<g opacity="0.53" clip-path="url(#clip0_82_58)">
<path d="M0.795929 66.3472L31.7807 37.2386L58.331 21.8315L83.6305 44.1178L110.181 13.5878L135.48 4.71878L161.405 28.597L189.49 12.2233" stroke="white" stroke-width="2.27411" stroke-miterlimit="10"/>
<path d="M35.533 33.2589H27.2325V41.5594H35.533V33.2589Z" fill="white"/>
<path d="M62.1401 18.1929H53.8396V26.4934H62.1401V18.1929Z" fill="white"/>
<path d="M87.7807 39.9107H79.4802V48.2112H87.7807V39.9107Z" fill="white"/>
<path d="M113.99 9.32385H105.689V17.6244H113.99V9.32385Z" fill="white"/>
<path d="M140.881 0H132.581V8.30051H140.881V0Z" fill="white"/>
<path d="M166.806 23.7645H158.506V32.065H166.806V23.7645Z" fill="white"/>
<path d="M193.641 9.32385H185.34V17.6244H193.641V9.32385Z" fill="white"/>
</g>
<defs>
<clipPath id="clip0_82_58">
<rect width="193.641" height="67.2" fill="white"/>
</clipPath>
</defs>
</svg>
